<svg xmlns="http://www.w3.org/2000/svg" xmlns:xlink="http://www.w3.org/1999/xlink" viewBox="0 0 290.936 91.897"><defs><style>.a{stroke:rgba(0,0,0,0);fill:url(#a);}</style><linearGradient id="a" x1="0.763" y1="-0.479" x2="-0.024" y2="1.41" gradientUnits="objectBoundingBox"><stop offset="0" stop-color="#ffd166"/><stop offset="0.835" stop-color="#ef486f"/><stop offset="1" stop-color="#ef476f"/></linearGradient></defs><path class="a" d="M-474.087-1729.387q-5.739-5.285-5.739-14.375,0-8.977,5.995-14.375t15.2-5.4a24.513,24.513,0,0,1,11.193,2.386v8.75a22.256,22.256,0,0,0-11.193-3.125,11.537,11.537,0,0,0-8.579,3.209,11.618,11.618,0,0,0-3.182,8.552,11.715,11.715,0,0,0,3.125,8.579,11.4,11.4,0,0,0,8.523,3.182,16.271,16.271,0,0,0,4.829-.738v-7.215h-6.193v-7.443h14.716v19.317q-5.455,3.978-13.75,3.978Q-468.349-1724.1-474.087-1729.387Zm86.417,4.83-8.3-13.3h-2.67v13.3h-8.75v-38.294h13.238q6.421,0,10.313,3.408a11.231,11.231,0,0,1,3.892,8.863q0,8.183-6.989,11.307l9.716,14.716Zm-10.965-20.4h4.148q5.681,0,5.681-5.569a5.013,5.013,0,0,0-1.477-3.835,5.647,5.647,0,0,0-4.034-1.392h-4.318Zm-39.657,20.4v-38.294h23.579v6.988h-14.773v8.693h13.182v6.931h-13.182v8.693h15v6.989Zm-54.486,0-2.33-7.841h-13.409l-2.328,7.841h-9.148l12.784-38.294h11.022l12.783,38.294Zm-13.238-16.25-.4,1.364h9.2l-.4-1.364q-1.648-5.567-2.7-9.489t-1.279-5.056l-.227-1.136Q-502.268-1753.364-506.017-1740.808Zm-28.578,16.25-9.148-15.852q-1.817-3.068-3.21-6.051t-1.9-4.4l-.454-1.42a72.992,72.992,0,0,1,.853,11.875v15.852h-8.75v-38.294h9.6l8.92,15.851q1.876,3.352,3.267,6.278a43.712,43.712,0,0,1,1.79,4.12l.454,1.25a92.04,92.04,0,0,1-.569-11.647v-15.851h8.75v38.294Zm-36.988,0-2.33-7.841h-13.408l-2.329,7.841H-598.8l12.784-38.294h11.021l12.784,38.294Zm-13.238-16.25-.4,1.364h9.2l-.4-1.364q-1.648-5.567-2.7-9.489t-1.278-5.056l-.228-1.136Q-581.071-1753.364-584.821-1740.808Zm-26.874,16.25-1.42-14.829-.74-11.194q-1.477,4.261-4.09,11.194l-5.4,14.43h-5.17l-5.341-14.43q-1.307-3.523-2.217-6.307t-1.193-3.864l-.284-1.023q0,4.033-.511,11.194l-1.193,14.829H-648l3.295-38.294h9.6l5.34,13.862q1.363,3.466,2.329,6.363t1.25,4.09l.284,1.138a101.4,101.4,0,0,1,3.977-11.591l5.4-13.862h9.6l3.977,38.294Zm251.848-28.409-.272-2.852-.142-2.153q-.283.821-.787,2.153l-1.038,2.775h-.995l-1.027-2.775c-.167-.451-.31-.856-.426-1.213s-.193-.6-.23-.743l-.054-.2q0,.776-.1,2.153l-.23,2.852h-1.682l.634-7.364h1.847l1.027,2.666q.262.667.448,1.223t.24.788l.055.218a19.32,19.32,0,0,1,.764-2.229l1.038-2.666h1.847l.764,7.364Zm-11.341,0v-6.009h-1.8v-1.355h5.288v1.355h-1.792v6.009Zm-215.821-27.887q-4.63-5.4-4.63-14.375,0-9.034,4.517-14.4t12.243-5.369q7.955,0,12.386,5.313t4.431,14.459q0,9.09-4.488,14.431t-12.215,5.34A15.341,15.341,0,0,1-587.009-1780.854Zm2.5-26.391q-3.494,4.347-3.5,12.017,0,7.556,3.608,11.959a11.819,11.819,0,0,0,9.631,4.4q6.25,0,9.658-4.346t3.409-12.017q0-7.726-3.438-12.045t-9.744-4.318A11.677,11.677,0,0,0-584.508-1807.245Zm-62.071,29.231v-3.92a14.254,14.254,0,0,0,4.4,2.16,18.148,18.148,0,0,0,5.484.852,9.94,9.94,0,0,0,6.278-1.761,6.046,6.046,0,0,0,2.244-5.057,5.254,5.254,0,0,0-1.7-4.062,18.133,18.133,0,0,0-4.943-2.982q-.454-.229-1.988-.881t-2.158-.937q-.625-.285-1.932-.966a10.573,10.573,0,0,1-1.9-1.193q-.6-.513-1.505-1.364a5.667,5.667,0,0,1-1.307-1.7,14.261,14.261,0,0,1-.739-2.017,8.757,8.757,0,0,1-.341-2.471,9,9,0,0,1,3.465-7.529,13.361,13.361,0,0,1,8.466-2.7,16.7,16.7,0,0,1,7.955,1.7v3.92a12.644,12.644,0,0,0-3.58-1.534,15.856,15.856,0,0,0-4.318-.625,9.558,9.558,0,0,0-6.079,1.79,5.737,5.737,0,0,0-2.273,4.743,6.022,6.022,0,0,0,.6,2.728,6.047,6.047,0,0,0,2.017,2.187,21.9,21.9,0,0,0,2.472,1.535q1.05.539,3.21,1.45,1.988.85,3.011,1.334a24.43,24.43,0,0,1,2.614,1.5,10.563,10.563,0,0,1,2.415,2.018,10.122,10.122,0,0,1,1.477,2.557,8.817,8.817,0,0,1,.653,3.438,9.152,9.152,0,0,1-3.351,7.642,13.442,13.442,0,0,1-8.58,2.642A19.124,19.124,0,0,1-646.579-1778.013Zm126.073,2.1v-38.294h20.4v3.239h-16.874v14.318H-502.1v3.238h-14.885v14.261h17.214v3.238Zm-10.17,0-9.6-15.568h-6.874v15.568h-3.523v-38.294h8.637q6.7,0,10.027,3.04t3.323,8.608a11.509,11.509,0,0,1-2.158,6.647,10.273,10.273,0,0,1-5.8,3.807l10.17,16.192Zm-16.476-18.692h6.192a8.639,8.639,0,0,0,6.477-2.33,7.972,7.972,0,0,0,2.273-5.8q0-8.352-9.431-8.352h-5.511Zm-62.328,18.692v-35.055h-10.567v-3.239h24.715v3.239h-10.624v35.055Z" transform="translate(648.545 1815.5)"/></svg>